<?xml version="1.0" encoding="utf-8"?>
<!-- Generator: Adobe Illustrator 16.0.3, SVG Export Plug-In . SVG Version: 6.00 Build 0)  -->
<!DOCTYPE svg PUBLIC "-//W3C//DTD SVG 1.1//EN" "http://www.w3.org/Graphics/SVG/1.1/DTD/svg11.dtd">
<svg version="1.1" id="Слой_1" xmlns="http://www.w3.org/2000/svg" xmlns:xlink="http://www.w3.org/1999/xlink" x="0px" y="0px"
	 width="537.557px" height="146.34px" viewBox="0 0 537.557 146.34" enable-background="new 0 0 537.557 146.34"
	 xml:space="preserve">
<path fill="#FFFFFF" d="M207.115,45.907h-44.922c-0.322,0-0.446,0.042-0.476,0.058c0.006,0.012-0.033,0.135-0.033,0.455v54.049
	h8.795V82.564h36.636c5.814,0,9.976-1.256,12.362-3.731c2.408-2.503,3.624-6.374,3.624-11.497v-6.193
	c0-5.129-1.216-8.997-3.624-11.494C217.091,47.166,212.929,45.907,207.115,45.907z M214.305,66.082c0,3.024-0.78,5.377-2.313,6.979
	c-1.576,1.66-4.018,2.461-7.47,2.461h-34.043V56.459c0-1.771,1.268-3.004,3.084-3.004h30.958c3.397,0,5.907,0.826,7.47,2.461
	c1.533,1.604,2.313,3.953,2.313,6.982V66.082z"/>
<path fill="#FFFFFF" d="M259.618,91.983c-1.783-0.455-3.238-1.256-4.33-2.386c-1.082-1.12-1.859-2.611-2.305-4.428
	c-0.4-1.62-0.604-3.653-0.604-6.045V45.907h-8.798v34.477c0,3.808,0.407,7.052,1.212,9.666c0.749,2.464,1.949,4.476,3.551,5.985
	c1.617,1.518,3.762,2.638,6.383,3.331c2.768,0.729,6.229,1.103,10.278,1.103h34.222v-7.88h-33.717
	C263.17,92.589,261.189,92.384,259.618,91.983z"/>
<path fill="#FFFFFF" d="M355.681,46.025l-24.173,32.446l-23.937-32.368c-0.108-0.154-0.136-0.196-0.4-0.196h-9.205l28.934,37.985
	v16.576h8.802V83.884l29.29-38.013l-8.965,0.036C355.753,45.907,355.726,45.959,355.681,46.025z"/>
<path fill="#FFFFFF" d="M443.019,89.42c0,1.946-1.385,2.838-2.668,2.838h-0.753c-1.157,0-2.157-0.533-2.741-1.458l-31.061-40.741
	c-0.747-1.016-1.401-1.811-1.946-2.387c-0.467-0.484-0.947-0.867-1.434-1.129c-0.439-0.24-0.994-0.4-1.636-0.484
	c-0.804-0.1-1.85-0.151-3.1-0.151h-7.361c-2.009,0-3.452,0.416-4.292,1.235c-0.367,0.358-1.232,1.623-1.232,5.47v47.856h8.549
	V56.956c0-1.946,1.378-2.831,2.665-2.831h0.757c0.964,0,1.892,0.451,2.601,1.276l31.279,40.916c0.777,1.043,1.464,1.855,2.039,2.435
	c0.491,0.487,0.976,0.855,1.449,1.093c0.471,0.235,1.023,0.392,1.659,0.471c0.765,0.102,1.762,0.153,2.964,0.153h7.199
	c2.018,0,3.455-0.416,4.289-1.229c0.37-0.364,1.238-1.626,1.238-5.47V45.907h-8.465V89.42z"/>
<path fill="#FFFFFF" d="M536.346,45.907h-9.072c-0.521,0-0.696,0.081-0.696,0.081c-0.105,0.055-0.271,0.163-0.467,0.393
	l-20.883,20.984l-19.656-20.916c-0.208-0.24-0.374-0.389-0.533-0.463l0,0c0,0-0.188-0.079-0.688-0.079h-9.681l25.013,25.771
	l-27.702,28.79h9.027c0.563,0,0.789-0.069,0.816-0.075c0,0,0.162-0.091,0.437-0.413l22.256-23.241l22.265,23.355
	c0.17,0.238,0.275,0.286,0.275,0.286c0.003,0.007,0.214,0.088,0.795,0.088h9.705l-27.043-28.393L536.346,45.907z"/>
<polygon opacity="0.5" fill="#FFFFFF" points="50.208,111.427 50.208,110.55 43.831,114.233 44.588,114.671 44.588,115.55 
	50.969,111.866 "/>
<polygon opacity="0.5" fill="#FFFFFF" points="50.208,98.722 50.969,98.282 44.588,94.598 44.588,95.478 43.831,95.914 
	50.208,99.598 "/>
<polygon opacity="0.6" fill="#FFFFFF" points="117.231,98.641 117.231,85.441 116.475,85.878 115.714,85.441 115.714,98.641 
	111.279,101.197 99.848,94.595 99.848,95.475 99.09,95.911 110.523,102.514 110.523,107.635 94.012,117.161 89.603,114.619 
	89.603,101.391 88.845,101.83 88.086,101.394 88.086,115.002 84.009,117.357 72.218,110.55 72.218,111.427 71.456,111.866 
	83.227,118.658 83.227,123.388 71.456,130.186 72.218,130.626 72.218,131.499 83.622,124.915 89.176,128.123 95.131,124.683 
	95.131,118.273 111.279,108.947 116.475,111.95 122.427,108.511 122.427,101.638 "/>
<path opacity="0.6" fill="#FFFFFF" d="M77.839,82.77l0.762-0.442l-11.432-6.6v-5.114l16.649-9.618l4.269,2.464v13.392l0.759-0.437
	l0.758,0.437V63.845l4.599-2.657l11.264,6.506v-0.879l0.764-0.439l-11.098-6.407v-5.503l11.097-6.406l-0.762-0.438v-0.883
	l-11.264,6.507l-4.599-2.657V37.777l-0.426,0.244l-1.09-0.629v13.581l-4.271,2.464l-16.646-9.611v-5.121l11.599-6.695l-0.595-0.344
	v-1.068l-11.764,6.789l-4.438-2.558V21.63l-0.756,0.44l-0.761-0.443v13.202l-4.432,2.558l-11.434-6.6v0.879l-0.759,0.438
	l11.432,6.602v5.121l-11.432,6.6l0.759,0.439v0.873l11.434-6.596l4.432,2.557v19.033l-4.432,2.561l-11.434-6.602v0.879l-0.759,0.439
	l11.432,6.604v5.114l-11.432,6.6l0.759,0.442v0.873l11.434-6.599l4.432,2.563v13.196l0.761-0.437l0.756,0.437V79.606l4.438-2.563
	l11.43,6.599V82.77z M66.405,69.293l-4.434-2.561V47.699l4.434-2.557l16.822,9.708v4.731L66.405,69.293z"/>
<polygon opacity="0.6" fill="#FFFFFF" points="23.339,32.104 22.576,31.666 22.576,30.787 11.148,37.387 5.955,34.389 0,37.826 
	0,44.703 5.196,47.699 5.196,66.732 0,69.733 0,76.606 5.196,79.606 5.196,98.641 0,101.638 0,108.511 5.955,111.95 11.148,108.947 
	22.576,115.55 22.576,114.671 23.338,114.233 11.908,107.635 11.908,102.514 23.338,95.914 22.576,95.478 22.576,94.598 
	11.148,101.197 6.715,98.641 6.715,79.606 11.148,77.044 22.576,83.643 22.576,82.77 23.338,82.33 11.908,75.73 11.908,70.609 
	23.338,64.01 22.576,63.57 22.576,62.693 11.145,69.293 6.715,66.732 6.715,47.699 11.148,45.143 22.576,51.738 22.576,50.865 
	23.339,50.426 11.908,43.826 11.908,38.703 "/>
<path fill="#FFFFFF" d="M124.577,45.947v-9.365l-8.103-4.678l-5.578,3.22l-13.61-7.858v-6.633l-8.11-4.681l-5.74,3.316L69.32,11.121
	v-6.44L61.215,0l-8.108,4.681v6.44l-13.949,8.048l-5.572-3.217l-8.11,4.681v9.359l5.577,3.219v16.106l-5.577,3.22v9.358l5.577,3.22
	v16.103l-5.577,3.224v9.361l5.577,3.217v16.105l-5.577,3.221v9.361l8.11,4.681l5.578-3.22l13.943,8.054v6.438l8.108,4.681
	l8.105-4.681v-9.361l-5.575-3.221v-16.103l5.575-3.223v-6.434l13.946-8.055l5.578,3.22l8.105-4.681v-6.439l13.946-8.052l5.578,3.22
	l8.103-4.678v-9.367l-5.574-3.217V49.164L124.577,45.947z M108.369,68.486v6.439l-13.952,8.052l-5.572-3.22l-8.108,4.684v6.439
	L66.787,98.93l-5.572-3.217l-8.108,4.681v9.358l5.575,3.223v16.103l-3.045,1.76l-13.946-8.055v-6.437l-5.577-3.221V97.02
	l5.577-3.217v-9.361l-5.577-3.224V65.115l5.577-3.22v-9.358l-5.577-3.22V33.211l5.577-3.219v-6.438L55.636,15.5l5.579,3.223
	l5.572-3.223l14.283,8.248v6.244l8.106,4.684l5.411-3.127l13.782,7.958v6.44l5.571,3.217V65.27L108.369,68.486z"/>
<g>
</g>
<g>
</g>
<g>
</g>
<g>
</g>
<g>
</g>
<g>
</g>
</svg>
