<?xml version="1.0" encoding="utf-8"?>
<!-- Generator: Adobe Illustrator 16.0.3, SVG Export Plug-In . SVG Version: 6.00 Build 0)  -->
<!DOCTYPE svg PUBLIC "-//W3C//DTD SVG 1.1//EN" "http://www.w3.org/Graphics/SVG/1.1/DTD/svg11.dtd">
<svg version="1.1" id="Слой_1" xmlns="http://www.w3.org/2000/svg" xmlns:xlink="http://www.w3.org/1999/xlink" x="0px" y="0px"
	 width="537.557px" height="146.339px" viewBox="0 0 537.557 146.339" enable-background="new 0 0 537.557 146.339"
	 xml:space="preserve">
<path fill="#111111" d="M207.115,45.907h-44.922c-0.322,0-0.446,0.042-0.476,0.058c0.006,0.012-0.033,0.135-0.033,0.455v54.048
	h8.795V82.564h36.636c5.813,0,9.976-1.256,12.362-3.731c2.408-2.503,3.624-6.374,3.624-11.497v-6.193
	c0-5.129-1.215-8.997-3.624-11.494C217.091,47.166,212.928,45.907,207.115,45.907z M214.305,66.082c0,3.024-0.78,5.377-2.313,6.979
	c-1.577,1.66-4.018,2.461-7.47,2.461h-34.043V56.459c0-1.771,1.268-3.004,3.084-3.004h30.958c3.397,0,5.907,0.826,7.47,2.461
	c1.533,1.604,2.313,3.953,2.313,6.982V66.082z"/>
<path fill="#111111" d="M259.619,91.984c-1.783-0.455-3.238-1.256-4.33-2.387c-1.083-1.119-1.86-2.611-2.306-4.428
	c-0.4-1.619-0.603-3.652-0.603-6.044V45.907h-8.798v34.477c0,3.807,0.407,7.051,1.212,9.667c0.749,2.463,1.949,4.475,3.55,5.984
	c1.618,1.518,3.762,2.639,6.383,3.332c2.768,0.729,6.229,1.102,10.279,1.102h34.222v-7.879H265.51
	C263.17,92.589,261.189,92.384,259.619,91.984z"/>
<path fill="#111111" d="M355.681,46.025l-24.173,32.446l-23.937-32.368c-0.108-0.154-0.136-0.196-0.4-0.196h-9.205l28.934,37.985
	v16.576h8.802V83.884l29.29-38.013l-8.965,0.036C355.753,45.907,355.726,45.959,355.681,46.025z"/>
<path fill="#111111" d="M443.019,89.419c0,1.947-1.385,2.838-2.668,2.838h-0.753c-1.157,0-2.157-0.533-2.741-1.457l-31.061-40.742
	c-0.747-1.016-1.401-1.811-1.946-2.387c-0.467-0.484-0.947-0.867-1.434-1.129c-0.439-0.24-0.994-0.4-1.636-0.484
	c-0.804-0.1-1.85-0.151-3.1-0.151h-7.361c-2.009,0-3.452,0.416-4.292,1.235c-0.367,0.358-1.232,1.623-1.232,5.47v47.856h8.549
	V56.956c0-1.946,1.378-2.831,2.665-2.831h0.757c0.964,0,1.892,0.451,2.601,1.276l31.279,40.917c0.777,1.043,1.464,1.855,2.039,2.434
	c0.491,0.488,0.976,0.855,1.449,1.094c0.471,0.234,1.023,0.391,1.659,0.471c0.765,0.102,1.762,0.152,2.964,0.152h7.199
	c2.018,0,3.455-0.416,4.289-1.229c0.37-0.365,1.238-1.627,1.238-5.471V45.907h-8.465V89.419z"/>
<path fill="#111111" d="M536.346,45.907h-9.072c-0.521,0-0.696,0.081-0.696,0.081c-0.105,0.055-0.271,0.163-0.467,0.393
	l-20.883,20.984l-19.656-20.916c-0.208-0.24-0.374-0.389-0.533-0.463l0,0c0,0-0.188-0.079-0.688-0.079h-9.681l25.013,25.771
	l-27.702,28.79h9.027c0.563,0,0.789-0.068,0.816-0.074c0,0,0.162-0.092,0.437-0.414l22.256-23.241l22.265,23.356
	c0.17,0.238,0.275,0.285,0.275,0.285c0.003,0.008,0.214,0.088,0.795,0.088h9.705l-27.043-28.392L536.346,45.907z"/>
<polygon opacity="0.5" fill="#2491EB" points="50.208,111.427 50.208,110.55 43.831,114.234 44.588,114.671 44.588,115.55 
	50.969,111.867 "/>
<polygon opacity="0.5" fill="#2491EB" points="50.208,98.722 50.969,98.283 44.588,94.597 44.588,95.478 43.831,95.914 
	50.208,99.597 "/>
<polygon opacity="0.6" fill="#2491EB" points="117.231,98.64 117.231,85.441 116.475,85.878 115.714,85.441 115.714,98.64 
	111.279,101.197 99.848,94.595 99.848,95.474 99.09,95.912 110.523,102.513 110.523,107.634 94.012,117.162 89.603,114.619 
	89.603,101.39 88.845,101.83 88.086,101.394 88.086,115.001 84.009,117.357 72.218,110.55 72.218,111.427 71.456,111.867 
	83.227,118.658 83.227,123.388 71.456,130.185 72.218,130.626 72.218,131.5 83.622,124.916 89.176,128.123 95.131,124.683 
	95.131,118.273 111.279,108.947 116.475,111.951 122.427,108.511 122.427,101.638 "/>
<path opacity="0.6" fill="#2491EB" d="M77.839,82.769l0.762-0.441l-11.432-6.6v-5.114l16.649-9.618l4.269,2.464v13.392l0.759-0.437
	l0.758,0.437V63.845l4.599-2.657l11.264,6.506v-0.879l0.764-0.439l-11.098-6.407v-5.503l11.097-6.406l-0.762-0.438v-0.883
	l-11.264,6.507l-4.599-2.657V37.777l-0.426,0.244l-1.09-0.629v13.581l-4.271,2.464l-16.646-9.611v-5.121l11.599-6.695l-0.595-0.344
	v-1.068l-11.764,6.789l-4.438-2.558V21.63l-0.756,0.44l-0.761-0.443v13.202l-4.432,2.558l-11.434-6.6v0.879l-0.759,0.438
	l11.432,6.602v5.121l-11.432,6.6l0.759,0.439v0.873l11.434-6.596l4.432,2.557v19.033l-4.432,2.561l-11.434-6.602v0.879l-0.759,0.439
	l11.432,6.604v5.114l-11.432,6.6l0.759,0.441v0.873l11.434-6.598l4.432,2.563v13.196l0.761-0.436l0.756,0.436V79.606l4.438-2.563
	l11.43,6.598V82.769z M66.405,69.293l-4.434-2.561V47.699l4.434-2.557l16.822,9.708v4.731L66.405,69.293z"/>
<polygon opacity="0.6" fill="#2491EB" points="23.339,32.104 22.576,31.666 22.576,30.787 11.148,37.387 5.955,34.389 0,37.826 
	0,44.703 5.196,47.699 5.196,66.732 0,69.733 0,76.606 5.196,79.606 5.196,98.64 0,101.638 0,108.511 5.955,111.951 11.148,108.947 
	22.576,115.55 22.576,114.671 23.338,114.234 11.908,107.634 11.908,102.513 23.338,95.914 22.576,95.478 22.576,94.597 
	11.148,101.197 6.715,98.64 6.715,79.606 11.148,77.044 22.576,83.642 22.576,82.769 23.338,82.33 11.908,75.73 11.908,70.609 
	23.338,64.01 22.576,63.57 22.576,62.693 11.145,69.293 6.715,66.732 6.715,47.699 11.148,45.143 22.576,51.738 22.576,50.865 
	23.339,50.426 11.908,43.826 11.908,38.703 "/>
<linearGradient id="SVGID_1_" gradientUnits="userSpaceOnUse" x1="75.0259" y1="9.8701" x2="75.0259" y2="135.6136">
	<stop  offset="0" style="stop-color:#2491EB"/>
	<stop  offset="1" style="stop-color:#2457EB"/>
</linearGradient>
<path fill="url(#SVGID_1_)" d="M124.577,45.947v-9.365l-8.103-4.678l-5.578,3.22l-13.61-7.858v-6.633l-8.11-4.681l-5.74,3.316
	L69.32,11.121v-6.44L61.215,0l-8.108,4.681v6.44l-13.949,8.048l-5.572-3.217l-8.11,4.681v9.359l5.577,3.219v16.106l-5.577,3.22
	v9.358l5.577,3.22v16.103l-5.577,3.223v9.361l5.577,3.217v16.105l-5.577,3.221v9.361l8.11,4.682l5.578-3.221l13.943,8.055v6.438
	l8.108,4.68l8.105-4.68v-9.361l-5.575-3.221v-16.104l5.575-3.223v-6.434l13.946-8.055l5.578,3.221l8.105-4.682v-6.439l13.946-8.051
	l5.578,3.219l8.103-4.677v-9.367l-5.574-3.217V49.164L124.577,45.947z M108.369,68.486v6.439l-13.952,8.052l-5.572-3.22
	l-8.108,4.683v6.439l-13.949,8.049l-5.572-3.217l-8.108,4.682v9.357l5.575,3.223v16.104l-3.045,1.76l-13.946-8.055v-6.438
	l-5.577-3.221V97.019l5.577-3.217v-9.361l-5.577-3.223V65.115l5.577-3.22v-9.358l-5.577-3.22V33.211l5.577-3.219v-6.438L55.636,15.5
	l5.579,3.223l5.572-3.223l14.283,8.248v6.244l8.106,4.684l5.411-3.127l13.782,7.958v6.44l5.571,3.217V65.27L108.369,68.486z"/>
<g>
</g>
<g>
</g>
<g>
</g>
<g>
</g>
<g>
</g>
<g>
</g>
</svg>
